<svg xmlns="http://www.w3.org/2000/svg" viewBox="0 0 1356 400"><path d="M185 0L247 0L247 1L249 2L249 83L250 83L250 84L254 84L254 83L263 75L264 71L268 68L268 66L269 66L289 45L293 44L295 41L297 41L297 40L300 39L302 36L304 36L304 35L307 34L308 32L310 32L310 31L312 31L313 29L315 29L315 28L316 28L317 26L319 26L320 24L323 24L323 23L327 22L328 20L331 20L331 19L335 18L336 16L340 16L341 14L345 14L345 13L351 12L351 11L353 11L353 10L355 10L355 9L364 8L364 7L369 7L369 6L372 6L372 5L375 5L375 4L383 4L383 3L387 3L387 2L393 2L393 1L405 1L405 0L465 0L465 1L467 2L467 83L469 83L469 84L473 83L473 81L474 81L474 80L479 76L479 74L488 66L488 64L491 62L491 60L492 60L497 54L499 54L499 53L500 53L504 48L506 48L510 43L512 43L512 42L515 41L517 38L519 38L520 36L522 36L525 32L531 30L532 28L536 27L537 25L543 23L543 22L546 21L546 20L550 20L550 19L552 19L552 18L555 17L555 16L559 16L559 15L563 14L564 12L571 12L571 11L575 10L576 8L583 8L583 7L585 7L585 6L587 6L587 5L591 5L591 4L600 4L600 3L604 3L604 2L621 1L621 0L751 0L751 1L753 2L753 156L754 156L754 158L755 158L756 160L759 160L759 161L845 161L846 164L847 164L847 234L846 234L846 235L844 235L844 236L764 236L764 237L763 237L763 243L764 243L764 245L766 246L766 248L767 248L767 250L769 251L769 253L771 254L772 258L780 265L781 268L784 269L785 272L787 272L788 274L790 274L793 278L795 278L795 279L796 279L798 282L800 282L801 284L803 284L803 285L805 285L805 286L807 286L807 287L809 287L809 288L811 288L811 289L813 289L813 290L815 290L815 291L827 293L827 294L832 295L832 296L844 296L844 297L899 297L899 298L902 299L902 301L903 301L903 390L902 390L902 394L901 394L900 396L840 396L840 395L827 395L827 394L821 394L821 393L818 393L818 392L809 392L809 391L806 391L806 390L796 389L796 388L789 387L789 386L787 386L787 385L780 384L779 382L777 382L777 381L775 381L775 380L772 380L772 379L770 379L770 378L768 378L768 377L766 377L766 376L763 376L763 375L761 375L760 373L756 372L755 370L753 370L753 369L751 369L751 368L748 368L747 366L741 364L740 361L736 360L732 355L730 355L729 353L725 352L724 349L721 348L720 345L718 345L718 344L704 331L704 329L700 326L700 324L697 322L697 320L696 320L691 314L689 314L689 313L686 313L685 316L684 316L684 394L683 394L682 396L620 396L620 395L610 395L610 394L606 394L606 393L602 393L602 392L592 392L592 391L587 391L587 390L583 390L583 389L571 387L571 386L569 386L569 385L566 385L566 384L560 383L560 382L558 382L558 381L556 381L556 380L553 380L553 379L551 379L551 378L549 378L549 377L547 377L547 376L544 376L543 374L537 372L537 371L534 370L533 368L531 368L531 367L529 367L528 365L524 364L524 363L521 362L518 358L516 358L515 356L513 356L510 352L508 352L507 350L505 350L505 348L504 348L500 343L498 343L498 342L494 339L494 338L489 334L489 332L488 332L487 330L485 330L485 328L480 324L480 322L476 319L476 317L472 314L472 312L471 312L470 309L468 308L467 304L465 303L464 299L463 299L462 296L460 295L459 290L456 288L455 282L454 282L454 280L452 279L452 275L451 275L451 273L450 273L450 271L449 271L449 269L448 269L448 265L447 265L447 262L446 262L445 257L444 257L443 249L442 249L442 247L441 247L441 241L440 241L440 236L439 236L439 232L438 232L438 224L437 224L437 220L436 220L436 176L437 176L437 170L438 170L439 161L440 161L440 153L441 153L441 149L442 149L443 144L444 144L445 137L446 137L447 132L448 132L448 128L449 128L449 126L450 126L450 124L451 124L451 121L452 121L452 119L453 119L453 116L454 116L454 114L455 114L455 112L456 112L458 106L460 105L460 102L459 102L458 100L403 100L403 101L395 101L395 102L393 102L393 103L391 103L391 104L385 104L385 105L383 105L383 106L381 106L381 107L379 107L379 108L376 108L376 109L374 109L374 110L368 112L367 114L361 116L358 120L356 120L356 121L353 122L351 125L349 125L349 126L340 134L340 136L338 137L338 139L336 140L336 142L333 144L332 148L330 149L330 151L329 151L329 153L328 153L328 155L327 155L327 157L326 157L326 159L329 160L329 161L409 161L410 164L411 164L411 234L408 235L408 236L321 236L321 237L318 239L318 242L317 242L317 390L316 390L316 395L315 395L315 396L192 396L192 395L175 395L175 394L169 394L169 393L166 393L166 392L158 392L158 391L154 391L154 390L146 390L146 389L139 388L139 387L136 387L136 386L134 386L134 385L128 384L128 383L126 383L126 382L124 382L124 381L121 381L121 380L119 380L119 379L116 379L116 378L114 378L114 377L112 377L112 376L109 376L108 374L101 372L100 369L96 368L95 366L93 366L93 365L91 365L91 364L88 364L84 359L82 359L81 357L77 356L76 353L74 353L74 352L71 351L67 346L65 346L65 344L64 344L63 342L61 342L61 340L60 340L59 338L57 338L57 336L45 325L45 323L43 322L43 320L40 318L40 316L38 315L38 313L34 310L34 308L33 308L32 305L30 304L30 302L29 302L27 296L25 295L25 293L24 293L24 291L23 291L23 289L22 289L22 287L21 287L21 285L20 285L20 283L19 283L19 281L18 281L18 279L17 279L17 277L16 277L16 275L15 275L15 272L14 272L14 270L13 270L13 268L12 268L11 261L10 261L10 259L9 259L9 257L8 257L7 247L6 247L6 244L5 244L5 241L4 241L3 227L2 227L2 223L1 223L1 212L0 212L0 184L1 184L1 174L2 174L2 170L3 170L4 156L5 156L6 151L7 151L7 145L8 145L9 137L10 137L10 135L11 135L11 132L12 132L13 126L14 126L14 124L15 124L15 122L16 122L16 119L17 119L17 117L18 117L18 115L19 115L19 113L20 113L20 111L21 111L21 109L22 109L22 107L23 107L25 101L27 100L28 96L30 95L30 93L32 92L33 88L36 86L36 84L38 83L38 81L40 80L40 78L41 78L41 77L45 74L45 72L56 62L56 60L57 60L60 56L62 56L74 43L76 43L77 41L79 41L81 38L83 38L84 36L88 35L90 32L92 32L92 31L95 30L96 28L98 28L98 27L100 27L100 26L102 26L102 25L104 25L104 24L106 24L106 23L108 23L108 22L110 22L110 21L112 21L112 20L114 20L114 19L116 19L116 18L118 18L118 17L120 17L120 16L123 16L123 15L125 15L125 14L127 14L127 13L129 13L129 12L135 12L135 11L139 10L140 8L147 8L147 7L149 7L149 6L155 6L155 5L157 5L157 4L164 4L164 3L168 3L168 2L185 1ZM200 99L200 100L183 100L183 101L176 101L176 102L173 102L173 103L171 103L171 104L163 105L163 106L161 106L161 107L159 107L159 108L156 108L156 109L153 110L152 112L148 112L148 113L145 114L143 117L141 117L139 120L137 120L136 123L134 123L134 124L119 138L119 140L117 141L116 145L113 147L111 153L109 154L108 158L109 158L109 160L111 160L111 161L191 161L191 162L192 162L192 235L190 235L190 236L109 236L108 240L109 240L111 246L113 247L113 249L115 250L116 254L119 256L119 258L124 262L124 264L125 264L132 272L136 273L136 275L139 276L141 280L147 282L148 284L151 284L151 285L155 286L155 287L158 288L158 289L161 289L161 290L167 291L167 292L171 292L171 293L174 293L174 294L180 295L180 296L212 297L212 296L215 296L215 295L216 295L216 293L217 293L217 197L218 197L218 187L219 187L220 165L221 165L221 162L222 162L222 159L223 159L224 146L225 146L225 144L226 144L226 142L227 142L227 140L228 140L228 133L229 133L229 130L230 130L231 125L232 125L232 123L233 123L233 120L234 120L234 118L236 117L237 112L238 112L238 110L239 110L239 108L240 108L240 106L241 106L241 101L238 100L238 99ZM632 99L632 100L612 101L612 102L609 102L609 103L607 103L607 104L599 105L599 106L597 106L597 107L595 107L595 108L592 108L592 109L589 110L588 112L584 112L583 114L581 114L579 117L577 117L576 119L574 119L569 125L567 125L567 126L564 128L564 130L563 130L563 131L555 138L555 140L552 142L552 144L550 145L550 147L549 147L547 153L544 155L544 159L545 159L546 161L627 161L627 162L628 162L628 235L626 235L626 236L545 236L544 240L545 240L545 242L546 242L548 248L550 249L551 253L553 254L553 256L554 256L555 258L556 258L557 261L562 265L562 267L563 267L565 270L567 270L568 272L570 272L574 277L576 277L577 280L583 282L584 284L587 284L587 285L591 286L591 287L594 288L594 289L597 289L597 290L599 290L599 291L603 291L603 292L609 293L609 294L611 294L611 295L627 296L627 297L675 297L676 294L677 294L676 289L675 289L675 286L672 284L671 278L670 278L670 276L668 275L668 271L667 271L667 269L666 269L666 267L665 267L665 265L664 265L664 260L663 260L663 257L662 257L662 255L661 255L661 253L660 253L660 248L659 248L659 243L658 243L657 233L656 233L656 224L655 224L654 207L653 207L653 105L652 105L652 102L651 102L650 100L647 100L647 99ZM1158 223L1246 223L1246 224L1249 225L1249 234L1246 235L1246 236L1159 236L1159 235L1157 235L1157 233L1156 233L1156 226L1157 226ZM988 244L992 244L992 245L1002 245L1002 246L1005 246L1005 247L1007 247L1007 248L1011 248L1011 249L1014 249L1014 250L1020 252L1020 253L1023 254L1023 255L1030 261L1030 263L1034 266L1034 268L1035 268L1035 270L1036 270L1036 273L1037 273L1039 276L1042 276L1042 250L1043 250L1044 248L1111 248L1111 249L1123 249L1123 250L1126 250L1126 251L1128 251L1128 252L1135 252L1135 253L1139 254L1140 256L1144 257L1144 259L1147 260L1147 261L1151 264L1151 266L1152 266L1153 268L1156 268L1156 265L1157 265L1157 263L1156 263L1156 250L1157 250L1158 248L1247 248L1247 249L1249 250L1249 278L1248 278L1248 279L1246 279L1246 280L1197 280L1197 281L1195 282L1195 299L1196 299L1197 302L1235 302L1235 303L1237 304L1237 332L1236 332L1236 333L1198 333L1198 334L1196 335L1196 337L1195 337L1195 363L1196 363L1197 365L1246 365L1246 364L1248 364L1249 361L1250 361L1250 359L1251 359L1251 356L1252 356L1252 349L1253 349L1253 346L1254 346L1254 343L1255 343L1256 333L1257 333L1257 330L1258 330L1258 327L1259 327L1260 313L1261 313L1261 309L1262 309L1263 304L1264 304L1264 297L1265 297L1265 294L1266 294L1266 291L1267 291L1268 281L1269 281L1269 278L1270 278L1270 275L1271 275L1272 261L1273 261L1273 257L1274 257L1274 255L1275 255L1276 249L1277 249L1277 248L1320 248L1320 249L1323 250L1323 253L1324 253L1324 261L1325 261L1325 264L1326 264L1326 267L1327 267L1328 277L1329 277L1329 280L1330 280L1330 283L1331 283L1331 288L1332 288L1332 293L1333 293L1333 300L1334 300L1335 305L1336 305L1336 313L1337 313L1337 316L1338 316L1338 319L1339 319L1340 329L1341 329L1341 332L1342 332L1342 335L1343 335L1343 340L1344 340L1344 345L1345 345L1345 352L1346 352L1347 357L1348 357L1348 365L1349 365L1349 368L1350 368L1350 371L1351 371L1352 381L1353 381L1353 384L1354 384L1354 387L1355 387L1355 395L1354 395L1354 396L1318 396L1317 393L1316 393L1316 388L1315 388L1314 379L1313 379L1313 377L1311 377L1311 376L1286 376L1286 377L1284 378L1284 387L1283 387L1283 390L1282 390L1282 392L1281 392L1281 394L1280 394L1279 396L1117 396L1116 393L1115 393L1115 391L1112 389L1112 387L1111 387L1111 385L1110 385L1110 383L1109 383L1109 381L1108 381L1108 378L1107 378L1107 376L1106 376L1106 374L1105 374L1105 372L1104 372L1103 366L1102 366L1102 364L1100 363L1100 360L1099 360L1099 358L1098 358L1098 356L1097 356L1097 353L1096 353L1096 351L1095 351L1095 349L1094 349L1094 347L1093 347L1093 345L1092 345L1091 340L1090 340L1089 338L1087 338L1087 337L1082 337L1081 340L1080 340L1080 394L1079 394L1078 396L1045 396L1045 395L1043 394L1043 390L1042 390L1042 369L1039 369L1039 370L1037 371L1037 373L1036 373L1034 379L1032 380L1032 382L1031 382L1024 390L1020 391L1019 393L1017 393L1017 394L1015 394L1015 395L1008 396L1008 397L1005 397L1005 398L1003 398L1003 399L982 399L982 398L974 398L974 397L972 397L972 396L966 395L966 394L964 394L964 393L962 393L962 392L959 392L959 391L956 390L955 388L953 388L952 385L950 385L950 384L943 378L943 376L941 375L940 371L939 371L938 368L936 367L936 364L935 364L935 362L934 362L934 360L933 360L932 352L931 352L931 347L930 347L930 345L929 345L929 340L928 340L928 304L929 304L929 297L930 297L930 295L931 295L931 292L932 292L932 289L933 289L933 285L934 285L934 283L935 283L935 281L936 281L936 279L937 279L937 277L938 277L940 271L944 268L944 266L945 266L953 257L955 257L955 256L956 256L957 254L959 254L960 252L963 252L963 251L967 250L968 248L972 248L972 247L976 247L976 246L984 246L984 245L988 245ZM984 276L984 277L978 279L978 280L974 283L974 285L973 285L973 287L972 287L972 289L971 289L971 292L970 292L970 294L969 294L969 297L968 297L967 332L968 332L968 345L969 345L970 352L971 352L971 355L972 355L973 359L974 359L975 362L976 362L978 365L980 365L981 367L987 368L987 369L991 369L991 368L996 368L996 367L998 367L998 366L1004 361L1005 354L1006 354L1007 350L1009 350L1009 349L1039 349L1039 348L1042 347L1042 298L1041 298L1040 296L1010 296L1010 295L1007 294L1007 291L1006 291L1006 289L1005 289L1005 286L1004 286L1004 284L1001 282L1000 279L998 279L998 278L995 277L995 276ZM1081 280L1081 282L1080 282L1080 302L1081 302L1081 305L1111 305L1111 304L1116 303L1117 300L1118 300L1118 298L1119 298L1119 296L1120 296L1120 287L1119 287L1118 284L1116 284L1115 282L1113 282L1113 281L1111 281L1111 280ZM1297 297L1297 300L1296 300L1296 310L1295 310L1294 321L1293 321L1293 325L1292 325L1292 335L1291 335L1291 338L1290 338L1290 343L1293 344L1293 345L1306 345L1306 344L1307 344L1308 339L1307 339L1307 336L1306 336L1306 328L1305 328L1305 324L1304 324L1304 316L1303 316L1303 311L1302 311L1302 304L1301 304L1300 298ZM1153 317L1153 318L1151 319L1151 321L1150 321L1145 327L1140 328L1140 329L1137 330L1136 332L1132 332L1132 333L1129 335L1129 340L1131 341L1131 343L1132 343L1132 345L1133 345L1133 347L1134 347L1134 349L1135 349L1135 351L1136 351L1136 353L1137 353L1137 355L1138 355L1138 357L1139 357L1139 359L1140 359L1140 361L1141 361L1141 364L1142 364L1142 366L1143 366L1143 368L1144 368L1144 370L1145 370L1145 372L1146 372L1146 374L1147 374L1147 376L1148 376L1148 378L1149 378L1149 380L1150 380L1150 382L1151 382L1152 387L1153 387L1153 388L1156 387L1156 383L1157 383L1157 379L1156 379L1156 317Z" fill="#2b2a29" fill-rule="evenodd"/></svg>
